<svg id="invert" xmlns="http://www.w3.org/2000/svg" viewBox="0 0 230 48.38"><title>globaltel_logo_black</title><path d="M24.16,49a24.2,24.2,0,1,1,24.19-24.2A24.23,24.23,0,0,1,24.16,49Zm0-45.57A21.38,21.38,0,1,0,45.53,24.79,21.4,21.4,0,0,0,24.16,3.42Z" transform="translate(0.04 -0.6)"/><path d="M24.16,41.7a16.91,16.91,0,1,1,0-33.81V10.7A14.1,14.1,0,1,0,38.25,24.79h2.82A16.93,16.93,0,0,1,24.16,41.7Z" transform="translate(0.04 -0.6)"/><path d="M24.16,34.13a9.34,9.34,0,1,1,9.34-9.34H30.68a6.53,6.53,0,1,0-6.52,6.53Z" transform="translate(0.04 -0.6)"/><path d="M75.42,11.85a7.93,7.93,0,0,0-5.26-2.07c-4.44,0-7.13,3.37-7.13,7.63,0,3.4,2,6.92,7.13,6.92a6.89,6.89,0,0,0,4.67-1.65V19H69.54V15.52h8.87v8.72A10.3,10.3,0,0,1,70.16,28c-7.79,0-10.95-5.12-10.95-10.56,0-5.83,3.64-11.21,10.95-11.21a10.93,10.93,0,0,1,7.69,3.16Z" transform="translate(0.04 -0.6)"/><path d="M85.51,6.79v17.1H96.16V27.5H81.61V6.79Z" transform="translate(0.04 -0.6)"/><path d="M118.65,17.26C118.59,22.62,115.31,28,108,28S97.38,22.74,97.38,17.29,100.87,6.37,108,6.37,118.71,11.85,118.65,17.26Zm-17.43.09c.09,3.4,1.93,7,6.81,7s6.72-3.67,6.78-7.07-1.9-7.4-6.78-7.4S101.14,13.86,101.22,17.35Z" transform="translate(0.04 -0.6)"/><path d="M138.36,12.79a4.22,4.22,0,0,1-2.69,4A5.05,5.05,0,0,1,139,21.4c0,4.62-3.46,6.1-7.75,6.1H121.4V6.79h9.83C135.31,6.79,138.36,8.62,138.36,12.79ZM125.25,15.1h6c2.45,0,3.25-1,3.25-2.22,0-.94-.77-2.54-3.25-2.54h-6Zm0,8.76h6c1.59,0,3.87-.53,3.87-2.49s-2.28-2.84-3.87-2.84h-6Z" transform="translate(0.04 -0.6)"/><path d="M156.44,23.59H145.61l-1.78,3.91H139.6l9.29-20.71h4.26l9.29,20.71h-4.26ZM151,11.14,147.18,20h7.69Z" transform="translate(0.04 -0.6)"/><path d="M168.42,6.79v17.1h10.65V27.5H164.51V6.79Z" transform="translate(0.04 -0.6)"/><path d="M184.1,10.34h-6.57V6.79h17.05v3.55H188V27.5H184.1Z" transform="translate(0.04 -0.6)"/><path d="M212.39,27.5H196.88V6.79h15.51v3.79H200.76v4.76H212V19H200.76v4.67h11.63Z" transform="translate(0.04 -0.6)"/><path d="M219.31,6.79v17.1H230V27.5H215.41V6.79Z" transform="translate(0.04 -0.6)"/><path d="M66,38.78H65.9l-.59,1-1.2,1.91a1.17,1.17,0,0,1-.3.36.58.58,0,0,1-.37.1h-.57a.44.44,0,0,1-.35-.1,1.06,1.06,0,0,1-.15-.36L62,40.3l-.4-1.4H61.5l-.68,3.85c0,.1,0,.16-.08.18a.44.44,0,0,1-.19,0H59.49a.37.37,0,0,1-.17,0s0-.08,0-.18l1.11-6.34a1,1,0,0,1,.25-.56.79.79,0,0,1,.55-.17h.6a.63.63,0,0,1,.41.11.79.79,0,0,1,.2.38l.69,2.53.38,1.48h0l1-1.62L66,36.19a1.25,1.25,0,0,1,.35-.39.86.86,0,0,1,.5-.12h.51a.71.71,0,0,1,.48.14c.09.1.11.27.07.54l-1.13,6.39c0,.1,0,.16-.08.18a.49.49,0,0,1-.2,0h-1a.37.37,0,0,1-.17,0s0-.08,0-.18Z" transform="translate(0.04 -0.6)"/><path d="M73.7,40.21a3.76,3.76,0,0,1-1,2.12,3,3,0,0,1-2.13.74,2.06,2.06,0,0,1-1.84-.74,2.91,2.91,0,0,1-.25-2.1,4.45,4.45,0,0,1,.39-1.2,3.14,3.14,0,0,1,.68-.9,3,3,0,0,1,.92-.56,3.19,3.19,0,0,1,1.13-.2,2.08,2.08,0,0,1,1.83.76A2.7,2.7,0,0,1,73.7,40.21Zm-1.58,0a3.12,3.12,0,0,0,.07-.64,1.44,1.44,0,0,0-.09-.5.73.73,0,0,0-.27-.33.78.78,0,0,0-.46-.12,1.08,1.08,0,0,0-.89.42A2.49,2.49,0,0,0,70,40.21a2.12,2.12,0,0,0,0,1.18.71.71,0,0,0,.73.41,1,1,0,0,0,.51-.12,1.27,1.27,0,0,0,.4-.34,1.77,1.77,0,0,0,.27-.49A3.62,3.62,0,0,0,72.12,40.24Z" transform="translate(0.04 -0.6)"/><path d="M80,40.19a4.44,4.44,0,0,1-.35,1.12,3,3,0,0,1-.64.92,2.82,2.82,0,0,1-1,.61,3.23,3.23,0,0,1-1.29.23A7.27,7.27,0,0,1,75.61,43a3.6,3.6,0,0,1-1-.31c-.07,0-.12-.08-.13-.13a.54.54,0,0,1,0-.18l1.2-6.78a.25.25,0,0,1,.08-.17.3.3,0,0,1,.18,0H77a.22.22,0,0,1,.16,0s0,.08,0,.17l-.33,2a3.66,3.66,0,0,1,.61-.12,4.72,4.72,0,0,1,.64,0,2.33,2.33,0,0,1,1,.22,1.59,1.59,0,0,1,.63.6,2.07,2.07,0,0,1,.27.9A4.27,4.27,0,0,1,80,40.19Zm-1.57,0a1.7,1.7,0,0,0-.1-1.17.82.82,0,0,0-.78-.39l-.4,0a2.64,2.64,0,0,0-.53.11l-.51,2.89a2.72,2.72,0,0,0,.43.09l.37,0a1.4,1.4,0,0,0,1-.36A2.08,2.08,0,0,0,78.4,40.22Z" transform="translate(0.04 -0.6)"/><path d="M83.67,36.09a1,1,0,0,1-.36.6,1,1,0,0,1-.66.25.7.7,0,0,1-.71-.85.87.87,0,0,1,.13-.35,1.18,1.18,0,0,1,.23-.27,1.57,1.57,0,0,1,.31-.18,1,1,0,0,1,.34-.06.88.88,0,0,1,.33.06.94.94,0,0,1,.25.18.87.87,0,0,1,.14.27A1,1,0,0,1,83.67,36.09Zm-1.31,6.68a.21.21,0,0,1-.07.15s-.09,0-.19,0H81a.22.22,0,0,1-.16,0s0-.07,0-.15l.9-5.07a.18.18,0,0,1,.08-.15.27.27,0,0,1,.17,0h1.06c.1,0,.16,0,.18,0s0,.07,0,.15Z" transform="translate(0.04 -0.6)"/><path d="M86.53,42.68c0,.08,0,.13,0,.15l-.16.09a3.18,3.18,0,0,1-.56.12l-.56,0a2.23,2.23,0,0,1-.54-.06.75.75,0,0,1-.36-.23.93.93,0,0,1-.18-.44,2.59,2.59,0,0,1,0-.71l1.07-6.06c0-.1.05-.16.09-.17a.37.37,0,0,1,.17,0h1a.27.27,0,0,1,.17,0s0,.07,0,.15l-1,5.76a.62.62,0,0,0,0,.37c0,.07.13.11.29.11h.2l.19,0c.06,0,.11,0,.13,0a.12.12,0,0,1,0,.11Z" transform="translate(0.04 -0.6)"/><path d="M90.27,38.62H90a2.12,2.12,0,0,0-.42,0l-.72,4.1c0,.08,0,.13-.07.15s-.09,0-.18,0H87.51a.22.22,0,0,1-.16,0s0-.07,0-.15l.79-4.45a1.2,1.2,0,0,1,.22-.56,1,1,0,0,1,.57-.28,1.68,1.68,0,0,1,.3,0l.41,0,.44,0h.37a4.4,4.4,0,0,1,1.23.15,1.71,1.71,0,0,1,.79.46,1.55,1.55,0,0,1,.37.83,3.89,3.89,0,0,1,0,1.25l-.48,2.71a.21.21,0,0,1-.06.15s-.09,0-.19,0H91a.24.24,0,0,1-.16,0s0-.07,0-.15l.49-2.8a2.65,2.65,0,0,0,0-.59A.87.87,0,0,0,91.2,39a.69.69,0,0,0-.34-.26A2,2,0,0,0,90.27,38.62Z" transform="translate(0.04 -0.6)"/><path d="M96.66,36.09a1,1,0,0,1-.36.6,1,1,0,0,1-.66.25.7.7,0,0,1-.57-.25.66.66,0,0,1-.14-.6,1,1,0,0,1,.12-.35,1.55,1.55,0,0,1,.24-.27,1.33,1.33,0,0,1,.31-.18,1,1,0,0,1,.34-.06.69.69,0,0,1,.57.24.59.59,0,0,1,.14.27A.82.82,0,0,1,96.66,36.09Zm-1.31,6.68c0,.08,0,.13-.07.15a.3.3,0,0,1-.19,0H94a.22.22,0,0,1-.16,0s0-.07,0-.15l.9-5.07a.21.21,0,0,1,.07-.15.3.3,0,0,1,.18,0h1.06a.26.26,0,0,1,.18,0s0,.07,0,.15Z" transform="translate(0.04 -0.6)"/><path d="M105.35,40.21a3.7,3.7,0,0,1-1,2.12,3,3,0,0,1-2.12.74,2,2,0,0,1-1.84-.74,2.85,2.85,0,0,1-.26-2.1,4.14,4.14,0,0,1,.4-1.2,3.11,3.11,0,0,1,.67-.9,3,3,0,0,1,.92-.56,3.19,3.19,0,0,1,1.13-.2,2.09,2.09,0,0,1,1.84.76A2.7,2.7,0,0,1,105.35,40.21Zm-1.57,0a3.91,3.91,0,0,0,.06-.64,1.24,1.24,0,0,0-.09-.5.78.78,0,0,0-.26-.33.84.84,0,0,0-.47-.12,1.09,1.09,0,0,0-.89.42,2.49,2.49,0,0,0-.47,1.14,2.12,2.12,0,0,0,0,1.18.71.71,0,0,0,.73.41,1.08,1.08,0,0,0,.52-.12,1.14,1.14,0,0,0,.39-.34,1.77,1.77,0,0,0,.27-.49A3.62,3.62,0,0,0,103.78,40.24Z" transform="translate(0.04 -0.6)"/><path d="M107.17,44.9a.31.31,0,0,1-.06.15.38.38,0,0,1-.19,0h-1.07a.3.3,0,0,1-.16,0s0-.07,0-.15l1.2-6.77a.36.36,0,0,1,.07-.18.54.54,0,0,1,.19-.14,4.8,4.8,0,0,1,1.17-.32,8.81,8.81,0,0,1,1.2-.1,2.76,2.76,0,0,1,1.2.23,1.66,1.66,0,0,1,.7.6,2,2,0,0,1,.29.9,4.27,4.27,0,0,1-.06,1.11,4.78,4.78,0,0,1-.34,1.09,3,3,0,0,1-.61.9,2.79,2.79,0,0,1-.87.61,2.75,2.75,0,0,1-1.13.22l-.57,0a4.71,4.71,0,0,1-.58-.1ZM110,40.2a2.72,2.72,0,0,0,0-.72,1,1,0,0,0-.17-.47.63.63,0,0,0-.35-.24,1.6,1.6,0,0,0-.51-.08l-.39,0a2.5,2.5,0,0,0-.43.09l-.5,2.83a2.4,2.4,0,0,0,.47.09,2.62,2.62,0,0,0,.38,0,1.28,1.28,0,0,0,.91-.35A2,2,0,0,0,110,40.2Z" transform="translate(0.04 -0.6)"/><path d="M115.63,37.37a2.11,2.11,0,0,1,1.71.61,2,2,0,0,1,.3,1.74,1.19,1.19,0,0,1-.33.74,1,1,0,0,1-.61.19H114a1.27,1.27,0,0,0,0,.56.65.65,0,0,0,.2.35.79.79,0,0,0,.35.19,2.36,2.36,0,0,0,.48,0,2.7,2.7,0,0,0,.62-.08,4,4,0,0,0,.62-.18.31.31,0,0,1,.17,0,.12.12,0,0,1,.07.1l.2.75a.13.13,0,0,1,0,.14.33.33,0,0,1-.12.11,3.33,3.33,0,0,1-1,.35,4.29,4.29,0,0,1-1,.11,2.3,2.3,0,0,1-1.9-.67,2.7,2.7,0,0,1-.28-2.14,4.72,4.72,0,0,1,.4-1.22,3.33,3.33,0,0,1,.68-.91,2.61,2.61,0,0,1,.91-.56A3,3,0,0,1,115.63,37.37Zm-.19,1.25a1.08,1.08,0,0,0-.75.3,1.69,1.69,0,0,0-.45.77h2a2.1,2.1,0,0,0,0-.43.58.58,0,0,0-.09-.33.54.54,0,0,0-.24-.23A1,1,0,0,0,115.44,38.62Z" transform="translate(0.04 -0.6)"/><path d="M119.72,42.93a.46.46,0,0,1-.2,0h-1.06a.24.24,0,0,1-.16,0s0-.07,0-.15l.78-4.42a1.32,1.32,0,0,1,.25-.62,1,1,0,0,1,.65-.28l.39,0,.4,0a4.91,4.91,0,0,1,1.33.18,3,3,0,0,1,1.09.56.11.11,0,0,1,0,.12.61.61,0,0,1,0,.12l-.7.86c0,.07-.09.1-.13.1l-.15-.09a2.3,2.3,0,0,0-.56-.35,1.74,1.74,0,0,0-.72-.16,2,2,0,0,0-.42,0l-.71,4C119.77,42.86,119.75,42.91,119.72,42.93Z" transform="translate(0.04 -0.6)"/><path d="M127.76,42.28a.69.69,0,0,1-.08.23.43.43,0,0,1-.21.18,3,3,0,0,1-.55.19,5.72,5.72,0,0,1-.57.11l-.59.06a5.34,5.34,0,0,1-.55,0,4.09,4.09,0,0,1-1.15-.13,1.59,1.59,0,0,1-.67-.37,1,1,0,0,1-.3-.55,2,2,0,0,1,0-.68,2.5,2.5,0,0,1,.26-.74,2.05,2.05,0,0,1,.51-.59,2.66,2.66,0,0,1,.75-.39,3.35,3.35,0,0,1,1-.14h1.14l0-.16a1.37,1.37,0,0,0,0-.28.5.5,0,0,0-.09-.24.67.67,0,0,0-.25-.16,1.36,1.36,0,0,0-.45-.06h-.36l-.4,0a2.57,2.57,0,0,0-.4.06,2.44,2.44,0,0,0-.34.08c-.1,0-.16,0-.19,0a.17.17,0,0,1,0-.14l0-.73c0-.07,0-.13,0-.16a.22.22,0,0,1,.12-.07,4.45,4.45,0,0,1,1-.24,7.4,7.4,0,0,1,1-.08,2.09,2.09,0,0,1,1.57.49,1.61,1.61,0,0,1,.27,1.42Zm-1.19-1.79h-.82l-.31,0a.91.91,0,0,0-.33.1.8.8,0,0,0-.27.22.77.77,0,0,0-.16.4c-.05.24,0,.41.15.5a1.13,1.13,0,0,0,.63.15h.17l.23,0,.25,0,.24-.06Z" transform="translate(0.04 -0.6)"/><path d="M132.61,42.81s-.05.06-.13.09a4.53,4.53,0,0,1-.79.14l-.66,0a1.5,1.5,0,0,1-1.21-.38,1.27,1.27,0,0,1-.19-1.11l.52-3h-.73c-.07,0-.12,0-.13-.06a.21.21,0,0,1,0-.14l.1-.56a.32.32,0,0,1,.05-.14.52.52,0,0,1,.15-.07l.8-.17.25-1a.26.26,0,0,1,.1-.17.38.38,0,0,1,.18-.09l1-.31c.07,0,.12,0,.15,0s0,.08,0,.17l-.25,1.39H133c.08,0,.12,0,.14.05a.28.28,0,0,1,0,.13l-.13.73a.37.37,0,0,1-.05.15s-.07,0-.15,0h-1.14l-.47,2.65c0,.2,0,.34.08.41a.61.61,0,0,0,.43.12h.18l.21,0,.22,0,.18,0c.11,0,.17,0,.16.11l0,.86C132.62,42.74,132.61,42.78,132.61,42.81Z" transform="translate(0.04 -0.6)"/><path d="M136.72,37.37a2.15,2.15,0,0,1,1.72.61,2.11,2.11,0,0,1,.3,1.74,1.25,1.25,0,0,1-.34.74.93.93,0,0,1-.61.19h-2.65a1.46,1.46,0,0,0,0,.56.81.81,0,0,0,.2.35.83.83,0,0,0,.36.19,2.26,2.26,0,0,0,.47,0,2.86,2.86,0,0,0,.63-.08,3.92,3.92,0,0,0,.61-.18.35.35,0,0,1,.18,0s.05,0,.07.1l.2.75a.21.21,0,0,1,0,.14.5.5,0,0,1-.13.11,3.13,3.13,0,0,1-1,.35,4.29,4.29,0,0,1-1,.11,2.27,2.27,0,0,1-1.89-.67,2.66,2.66,0,0,1-.28-2.14A4.07,4.07,0,0,1,134,39a3.14,3.14,0,0,1,.68-.91,2.57,2.57,0,0,1,.9-.56A3.07,3.07,0,0,1,136.72,37.37Zm-.19,1.25a1,1,0,0,0-.74.3,1.54,1.54,0,0,0-.45.77h1.94a1.59,1.59,0,0,0,0-.43.8.8,0,0,0-.09-.33.66.66,0,0,0-.24-.23A1.1,1.1,0,0,0,136.53,38.62Z" transform="translate(0.04 -0.6)"/><path d="M140.81,42.93a.41.41,0,0,1-.19,0h-1.06a.22.22,0,0,1-.16,0s0-.07,0-.15l.78-4.42a1.32,1.32,0,0,1,.25-.62,1.07,1.07,0,0,1,.65-.28l.39,0,.41,0a4.83,4.83,0,0,1,1.32.18,2.89,2.89,0,0,1,1.09.56q.08.06.06.12a.34.34,0,0,1-.06.12l-.69.86c-.06.07-.1.1-.13.1a.42.42,0,0,1-.15-.09,2.5,2.5,0,0,0-.56-.35,1.81,1.81,0,0,0-.72-.16,1.87,1.87,0,0,0-.42,0l-.71,4C140.86,42.86,140.84,42.91,140.81,42.93Z" transform="translate(0.04 -0.6)"/><path d="M150.07,38.62h-.29a2.12,2.12,0,0,0-.42,0l-.73,4.1a.21.21,0,0,1-.06.15s-.09,0-.19,0h-1.07a.24.24,0,0,1-.16,0s0-.07,0-.15l.78-4.45a1.31,1.31,0,0,1,.23-.56.9.9,0,0,1,.56-.28l.31,0,.41,0,.43,0h.38a4.28,4.28,0,0,1,1.22.15,1.75,1.75,0,0,1,.8.46,1.63,1.63,0,0,1,.37.83,3.89,3.89,0,0,1-.05,1.25l-.48,2.71a.21.21,0,0,1-.06.15s-.09,0-.19,0h-1.07a.22.22,0,0,1-.16,0s0-.07,0-.15l.49-2.8a2.65,2.65,0,0,0,0-.59A.77.77,0,0,0,151,39a.61.61,0,0,0-.34-.26A1.91,1.91,0,0,0,150.07,38.62Z" transform="translate(0.04 -0.6)"/><path d="M158.94,40.21a3.76,3.76,0,0,1-1,2.12,3,3,0,0,1-2.13.74,2.07,2.07,0,0,1-1.84-.74,2.91,2.91,0,0,1-.25-2.1,4.45,4.45,0,0,1,.39-1.2,3.14,3.14,0,0,1,.68-.9,3,3,0,0,1,.92-.56,3.19,3.19,0,0,1,1.13-.2,2.11,2.11,0,0,1,1.84.76A2.75,2.75,0,0,1,158.94,40.21Zm-1.58,0a3.12,3.12,0,0,0,.07-.64,1.44,1.44,0,0,0-.09-.5.73.73,0,0,0-.27-.33.78.78,0,0,0-.46-.12,1.08,1.08,0,0,0-.89.42,2.49,2.49,0,0,0-.47,1.14,2.12,2.12,0,0,0,0,1.18.71.71,0,0,0,.73.41,1,1,0,0,0,.51-.12,1.27,1.27,0,0,0,.4-.34,1.77,1.77,0,0,0,.27-.49A3.62,3.62,0,0,0,157.36,40.24Z" transform="translate(0.04 -0.6)"/><path d="M163,42.46a.91.91,0,0,1-.35.45.87.87,0,0,1-.46.1h-.78a.61.61,0,0,1-.38-.1.79.79,0,0,1-.2-.45L160,37.7c0-.08,0-.13,0-.15a.21.21,0,0,1,.15,0h1.17c.11,0,.18,0,.21,0s.06.07.07.15l.29,2.12.17,1.76h.06l.79-1.77,1-2.1a.44.44,0,0,1,.11-.16.39.39,0,0,1,.22,0h1.15c.12,0,.15.05.09.17Z" transform="translate(0.04 -0.6)"/><path d="M168.73,37.37a2.11,2.11,0,0,1,1.71.61,2,2,0,0,1,.3,1.74,1.19,1.19,0,0,1-.33.74,1,1,0,0,1-.61.19h-2.66a1.46,1.46,0,0,0,0,.56.73.73,0,0,0,.21.35.79.79,0,0,0,.35.19,2.36,2.36,0,0,0,.48,0,2.7,2.7,0,0,0,.62-.08,4,4,0,0,0,.62-.18.31.31,0,0,1,.17,0s.05,0,.07.1l.2.75a.13.13,0,0,1,0,.14.33.33,0,0,1-.12.11,3.33,3.33,0,0,1-1,.35,4.29,4.29,0,0,1-1,.11,2.3,2.3,0,0,1-1.9-.67,2.66,2.66,0,0,1-.28-2.14A4.72,4.72,0,0,1,166,39a3.33,3.33,0,0,1,.68-.91,2.61,2.61,0,0,1,.91-.56A3,3,0,0,1,168.73,37.37Zm-.19,1.25a1.08,1.08,0,0,0-.75.3,1.69,1.69,0,0,0-.45.77h1.95a2.1,2.1,0,0,0,0-.43.58.58,0,0,0-.09-.33.54.54,0,0,0-.24-.23A1,1,0,0,0,168.54,38.62Z" transform="translate(0.04 -0.6)"/><path d="M179.26,42.4a3.83,3.83,0,0,1-.41,1.25,2.84,2.84,0,0,1-.71.86,3.2,3.2,0,0,1-1,.54,6.52,6.52,0,0,1-1.28.29.25.25,0,0,1-.16,0s0-.06,0-.13l0-1c0-.08,0-.13,0-.14a.32.32,0,0,1,.13,0l.6-.13a1.83,1.83,0,0,0,.54-.2,1.27,1.27,0,0,0,.43-.33,1.1,1.1,0,0,0,.23-.5v-.07a2.87,2.87,0,0,1-.61.12,4.44,4.44,0,0,1-.63,0,2.44,2.44,0,0,1-1-.2,1.44,1.44,0,0,1-.64-.55,2.08,2.08,0,0,1-.28-.86,3.91,3.91,0,0,1,.06-1.11,4.36,4.36,0,0,1,.35-1.11,3.34,3.34,0,0,1,.65-.91,3.2,3.2,0,0,1,.95-.6,3.59,3.59,0,0,1,1.27-.22,8.45,8.45,0,0,1,1.12.09,3.35,3.35,0,0,1,1,.31c.08.05.13.1.14.14a.34.34,0,0,1,0,.18Zm-3.16-2.2a1.52,1.52,0,0,0,.1,1.14.93.93,0,0,0,.79.33l.39,0a3.33,3.33,0,0,0,.53-.11l.48-2.75a1.87,1.87,0,0,0-.41-.09l-.36,0a1.51,1.51,0,0,0-.53.09,1.13,1.13,0,0,0-.45.26,1.7,1.7,0,0,0-.33.46A3.08,3.08,0,0,0,176.1,40.2Z" transform="translate(0.04 -0.6)"/><path d="M183.88,37.37a1.77,1.77,0,0,1,2,2.35,1.19,1.19,0,0,1-.34.74.92.92,0,0,1-.6.19h-2.66a1.46,1.46,0,0,0,0,.56.81.81,0,0,0,.2.35.89.89,0,0,0,.36.19,2.26,2.26,0,0,0,.47,0,2.86,2.86,0,0,0,.63-.08,3.92,3.92,0,0,0,.61-.18.35.35,0,0,1,.18,0s.05,0,.07.1l.2.75a.16.16,0,0,1,0,.14.37.37,0,0,1-.13.11,3.16,3.16,0,0,1-.95.35,4.37,4.37,0,0,1-1,.11,2.29,2.29,0,0,1-1.89-.67,2.66,2.66,0,0,1-.28-2.14,4.07,4.07,0,0,1,.4-1.22,3.14,3.14,0,0,1,.68-.91,2.61,2.61,0,0,1,.91-.56A3,3,0,0,1,183.88,37.37Zm-.19,1.25a1.05,1.05,0,0,0-.75.3,1.54,1.54,0,0,0-.45.77h1.94a1.59,1.59,0,0,0,0-.43.8.8,0,0,0-.09-.33.54.54,0,0,0-.24-.23A1.08,1.08,0,0,0,183.69,38.62Z" transform="translate(0.04 -0.6)"/><path d="M189.39,38.62h-.29a2.12,2.12,0,0,0-.42,0l-.72,4.1c0,.08,0,.13-.07.15s-.09,0-.18,0h-1.07a.22.22,0,0,1-.16,0s0-.07,0-.15l.79-4.45a1.2,1.2,0,0,1,.22-.56,1,1,0,0,1,.57-.28,1.68,1.68,0,0,1,.3,0l.41,0,.44,0h.37a4.4,4.4,0,0,1,1.23.15,1.71,1.71,0,0,1,.79.46,1.55,1.55,0,0,1,.37.83,3.89,3.89,0,0,1-.05,1.25l-.48,2.71a.21.21,0,0,1-.06.15s-.09,0-.19,0h-1.07a.24.24,0,0,1-.16,0s0-.07,0-.15l.49-2.8a2.65,2.65,0,0,0,0-.59.87.87,0,0,0-.12-.42.69.69,0,0,0-.34-.26A1.93,1.93,0,0,0,189.39,38.62Z" transform="translate(0.04 -0.6)"/><path d="M196.09,37.37a2.13,2.13,0,0,1,1.72.61,2.11,2.11,0,0,1,.3,1.74,1.19,1.19,0,0,1-.34.74.92.92,0,0,1-.6.19h-2.66a1.46,1.46,0,0,0,0,.56.81.81,0,0,0,.2.35.89.89,0,0,0,.36.19,2.26,2.26,0,0,0,.47,0,2.86,2.86,0,0,0,.63-.08,3.92,3.92,0,0,0,.61-.18.35.35,0,0,1,.18,0s.05,0,.07.1l.2.75a.16.16,0,0,1,0,.14.37.37,0,0,1-.13.11,3.16,3.16,0,0,1-.95.35,4.43,4.43,0,0,1-1,.11,2.28,2.28,0,0,1-1.89-.67,2.66,2.66,0,0,1-.28-2.14,4.07,4.07,0,0,1,.4-1.22,3.14,3.14,0,0,1,.68-.91,2.52,2.52,0,0,1,.91-.56A3,3,0,0,1,196.09,37.37Zm-.19,1.25a1,1,0,0,0-.74.3,1.54,1.54,0,0,0-.45.77h1.94a1.59,1.59,0,0,0,0-.43.8.8,0,0,0-.09-.33.54.54,0,0,0-.24-.23A1.1,1.1,0,0,0,195.9,38.62Z" transform="translate(0.04 -0.6)"/><path d="M200.18,42.93a.41.41,0,0,1-.19,0h-1.06a.22.22,0,0,1-.16,0s0-.07,0-.15l.78-4.42a1.32,1.32,0,0,1,.25-.62,1.07,1.07,0,0,1,.65-.28l.39,0,.41,0a4.83,4.83,0,0,1,1.32.18,2.89,2.89,0,0,1,1.09.56q.08.06.06.12a.34.34,0,0,1-.06.12l-.69.86c-.06.07-.1.1-.13.1a.42.42,0,0,1-.15-.09,2.5,2.5,0,0,0-.56-.35,1.81,1.81,0,0,0-.72-.16,1.87,1.87,0,0,0-.42,0l-.71,4C200.23,42.86,200.21,42.91,200.18,42.93Z" transform="translate(0.04 -0.6)"/><path d="M208.22,42.28a.69.69,0,0,1-.07.23.55.55,0,0,1-.21.18,3.58,3.58,0,0,1-.55.19c-.19,0-.39.08-.58.11a5.61,5.61,0,0,1-.59.06,5.24,5.24,0,0,1-.55,0,4,4,0,0,1-1.14-.13,1.53,1.53,0,0,1-.67-.37,1,1,0,0,1-.3-.55,1.94,1.94,0,0,1,0-.68,2.26,2.26,0,0,1,.27-.74,2.05,2.05,0,0,1,.51-.59,2.66,2.66,0,0,1,.75-.39,3.33,3.33,0,0,1,1-.14h1.14l0-.16a.9.9,0,0,0,0-.28.36.36,0,0,0-.09-.24.56.56,0,0,0-.24-.16,1.42,1.42,0,0,0-.46-.06h-.36l-.4,0a2.63,2.63,0,0,0-.39.06l-.35.08a.26.26,0,0,1-.18,0s-.05-.07-.05-.14l0-.73a.25.25,0,0,1,0-.16.27.27,0,0,1,.12-.07,4.54,4.54,0,0,1,1-.24,7.26,7.26,0,0,1,1-.08,2.07,2.07,0,0,1,1.57.49,1.55,1.55,0,0,1,.27,1.42ZM207,40.49h-.82l-.32,0a.92.92,0,0,0-.32.1.74.74,0,0,0-.28.22.86.86,0,0,0-.16.4.44.44,0,0,0,.16.5,1.08,1.08,0,0,0,.63.15h.17l.22,0,.25,0a1.4,1.4,0,0,0,.24-.06Z" transform="translate(0.04 -0.6)"/><path d="M212.21,41.72a3,3,0,0,0,.66-.07l.57-.16a.34.34,0,0,1,.19,0s.05,0,.07.13l.15.78a.33.33,0,0,1,0,.16s-.06.09-.15.13a3.78,3.78,0,0,1-1,.34,7.14,7.14,0,0,1-1,.08,2,2,0,0,1-1.73-.7,2.75,2.75,0,0,1-.26-2.12,3.85,3.85,0,0,1,.39-1.2,3.31,3.31,0,0,1,.67-.91,2.74,2.74,0,0,1,.92-.57,3.08,3.08,0,0,1,1.11-.2,3.86,3.86,0,0,1,.84.09,2.7,2.7,0,0,1,.74.27c.08,0,.12.08.13.11a.38.38,0,0,1-.07.18l-.43.8c0,.07-.1.12-.14.12a.41.41,0,0,1-.2,0,4.77,4.77,0,0,0-.51-.13,2.05,2.05,0,0,0-.49-.06,1.16,1.16,0,0,0-.54.13,1.3,1.3,0,0,0-.41.33,1.89,1.89,0,0,0-.28.48,3.66,3.66,0,0,0-.17.59,4.27,4.27,0,0,0-.05.59,1,1,0,0,0,.11.47.69.69,0,0,0,.3.31A1.23,1.23,0,0,0,212.21,41.72Z" transform="translate(0.04 -0.6)"/><path d="M217.82,36.09a1,1,0,0,1-.36.6,1,1,0,0,1-.66.25.7.7,0,0,1-.57-.25.66.66,0,0,1-.14-.6,1,1,0,0,1,.12-.35,1.55,1.55,0,0,1,.24-.27,1.33,1.33,0,0,1,.31-.18,1,1,0,0,1,.34-.06.69.69,0,0,1,.57.24.59.59,0,0,1,.14.27A.82.82,0,0,1,217.82,36.09Zm-1.31,6.68c0,.08,0,.13-.07.15a.3.3,0,0,1-.19,0h-1.06a.22.22,0,0,1-.16,0s0-.07,0-.15l.9-5.07c0-.08,0-.13.07-.15a.3.3,0,0,1,.18,0h1.06a.26.26,0,0,1,.18,0s0,.07,0,.15Z" transform="translate(0.04 -0.6)"/><path d="M219.9,42.17a4.9,4.9,0,0,1-.38,1.27,3.3,3.3,0,0,1-.58.87,2.87,2.87,0,0,1-.74.58,4.58,4.58,0,0,1-.83.35.47.47,0,0,1-.23,0s-.06-.05-.08-.12l-.18-.89c0-.09,0-.15,0-.18s.08-.07.16-.11a3,3,0,0,0,.57-.34,1.56,1.56,0,0,0,.38-.39,1.69,1.69,0,0,0,.25-.48,3.89,3.89,0,0,0,.15-.59l.79-4.48c0-.08,0-.13.07-.15a.27.27,0,0,1,.17,0h1.09c.09,0,.15,0,.17,0a.35.35,0,0,1,0,.15Zm1.21-6.08a1.07,1.07,0,0,1-1,.85.73.73,0,0,1-.58-.25.66.66,0,0,1-.14-.6.87.87,0,0,1,.13-.35,1.18,1.18,0,0,1,.23-.27,1.57,1.57,0,0,1,.31-.18,1.07,1.07,0,0,1,.35-.06.72.72,0,0,1,.57.24A.73.73,0,0,1,221.11,36.09Z" transform="translate(0.04 -0.6)"/><path d="M224.67,37.37a2.15,2.15,0,0,1,1.72.61,2.11,2.11,0,0,1,.3,1.74,1.25,1.25,0,0,1-.34.74.93.93,0,0,1-.61.19h-2.65a1.46,1.46,0,0,0,0,.56.81.81,0,0,0,.2.35.89.89,0,0,0,.36.19,2.26,2.26,0,0,0,.47,0,2.86,2.86,0,0,0,.63-.08,3.92,3.92,0,0,0,.61-.18.35.35,0,0,1,.18,0s0,0,.07.1l.2.75a.21.21,0,0,1,0,.14.37.37,0,0,1-.13.11,3.13,3.13,0,0,1-1,.35,4.29,4.29,0,0,1-1,.11,2.27,2.27,0,0,1-1.89-.67,2.66,2.66,0,0,1-.28-2.14A4.07,4.07,0,0,1,222,39a3.14,3.14,0,0,1,.68-.91,2.57,2.57,0,0,1,.9-.56A3.07,3.07,0,0,1,224.67,37.37Zm-.19,1.25a1,1,0,0,0-.74.3,1.54,1.54,0,0,0-.45.77h1.94a1.59,1.59,0,0,0,0-.43.8.8,0,0,0-.09-.33.59.59,0,0,0-.24-.23A1.1,1.1,0,0,0,224.48,38.62Z" transform="translate(0.04 -0.6)"/><path d="M229.21,42.15a1.13,1.13,0,0,1-.39.66,1.12,1.12,0,0,1-.73.27.86.86,0,0,1-.36-.07.68.68,0,0,1-.27-.2.64.64,0,0,1-.16-.29.77.77,0,0,1,0-.37,1,1,0,0,1,.14-.37,1.2,1.2,0,0,1,.26-.29,1.17,1.17,0,0,1,.34-.2,1.07,1.07,0,0,1,.39-.07.77.77,0,0,1,.63.27A.76.76,0,0,1,229.21,42.15Z" transform="translate(0.04 -0.6)"/></svg>